<svg width="639" height="267" viewBox="0 0 639 267" fill="none" xmlns="http://www.w3.org/2000/svg">
<path d="M352.674 264.432C398.388 251.931 380.282 192.742 419.757 171.763C471.406 144.316 557.616 168.084 599.847 133.077C642.709 97.5465 644.326 42.3496 631.968 -4.14611C618.601 -54.4344 586.191 -105.107 528.734 -134.458C471.951 -163.465 396.424 -167.309 327.986 -159.432C267.344 -152.451 225.201 -115.536 171.824 -93.3759C120.222 -71.9527 49.4498 -68.7497 19.4383 -31.3351C-10.6248 6.14385 -2.03172 55.8985 19.6366 96.3528C38.8012 132.133 89.9448 150.535 130.127 175.318C160.83 194.255 192.017 210.296 227.252 224.405C268.086 240.756 309.064 276.357 352.674 264.432Z" fill="#2AB1AD"/>
</svg>
